<svg width="175" height="70" viewBox="0 0 175 70" fill="none" xmlns="http://www.w3.org/2000/svg">
<path d="M53.4829 65.058L63.6593 24.9518H3.37622L13.5526 65.058H53.4829Z" fill="#FF595E" stroke="#FF595E" stroke-width="3.60048" stroke-linejoin="round"/>
<path d="M20.5479 54.8166L15.5154 33.2566" stroke="white" stroke-width="3.60048" stroke-linecap="round"/>
<path d="M46.4876 54.8166L51.5202 33.2566" stroke="white" stroke-width="3.60048" stroke-linecap="round"/>
<path d="M33.2881 55.104L33.7474 32.9692" stroke="white" stroke-width="3.60048" stroke-linecap="round"/>
<path d="M51.5202 18.8117L43.8613 4.94196" stroke="#FF595E" stroke-width="3.60048" stroke-linecap="round"/>
<path d="M15.5154 18.8117L23.8586 4.94196" stroke="#FF595E" stroke-width="3.60048" stroke-linecap="round"/>
<path d="M83.1914 38.4529C84.4077 38.4529 85.464 38.5809 86.3602 38.837C87.2778 39.0931 87.9821 39.4559 88.4729 39.9253C88.985 40.3734 89.241 40.9176 89.241 41.5578C89.241 41.9846 89.113 42.39 88.857 42.7741C88.6009 43.1369 88.2274 43.3183 87.7366 43.3183C87.3952 43.3183 87.1071 43.2756 86.8724 43.1902C86.659 43.0835 86.4669 42.9555 86.2962 42.8061C86.1255 42.6567 85.9228 42.518 85.6881 42.39C85.4747 42.262 85.1439 42.1659 84.6958 42.1019C84.269 42.0166 83.9489 41.9739 83.7355 41.9739C82.6472 41.9739 81.719 42.2086 80.9508 42.6781C80.2039 43.1475 79.6278 43.7877 79.2223 44.5986C78.8169 45.3882 78.6141 46.3057 78.6141 47.3514C78.6141 48.3756 78.8169 49.2932 79.2223 50.1041C79.6491 50.8937 80.2252 51.5232 80.9508 51.9926C81.6976 52.4621 82.5512 52.6968 83.5115 52.6968C84.045 52.6968 84.5037 52.6648 84.8878 52.6008C85.2719 52.5368 85.592 52.4408 85.8481 52.3127C86.1468 52.142 86.4136 51.9606 86.6483 51.7686C86.8831 51.5765 87.2352 51.4805 87.7046 51.4805C88.2595 51.4805 88.6862 51.6619 88.985 52.0246C89.2837 52.3661 89.4331 52.7929 89.4331 53.305C89.4331 53.8385 89.1344 54.3293 88.5369 54.7774C87.9394 55.2042 87.1498 55.5563 86.1682 55.8337C85.208 56.0898 84.1623 56.2178 83.0313 56.2178C81.3455 56.2178 79.8838 55.8337 78.6461 55.0655C77.4085 54.2759 76.4482 53.209 75.7653 51.8646C75.1038 50.5202 74.773 49.0158 74.773 47.3514C74.773 45.6015 75.1252 44.0651 75.8293 42.7421C76.5549 41.3977 77.5471 40.3521 78.8062 39.6052C80.0865 38.837 81.5483 38.4529 83.1914 38.4529Z" fill="#FF595E"/>
<path d="M100.124 56.2178C98.3102 56.2178 96.7311 55.8444 95.3867 55.0975C94.0637 54.3293 93.0394 53.2943 92.3139 51.9926C91.6097 50.6909 91.2576 49.2185 91.2576 47.5754C91.2576 45.6549 91.6417 44.0224 92.4099 42.6781C93.1994 41.3124 94.2237 40.2667 95.4827 39.5412C96.7418 38.8157 98.0754 38.4529 99.4838 38.4529C100.572 38.4529 101.596 38.677 102.557 39.1251C103.538 39.5732 104.403 40.1921 105.149 40.9816C105.896 41.7498 106.483 42.6461 106.91 43.6703C107.358 44.6946 107.582 45.7829 107.582 46.9352C107.561 47.4474 107.358 47.8635 106.974 48.1836C106.59 48.5037 106.142 48.6637 105.63 48.6637H93.4022L92.4419 45.4628H104.189L103.485 46.103V45.2388C103.442 44.6199 103.218 44.0651 102.813 43.5743C102.429 43.0835 101.938 42.6994 101.34 42.422C100.764 42.1233 100.145 41.9739 99.4838 41.9739C98.8436 41.9739 98.2462 42.0592 97.6913 42.23C97.1365 42.4007 96.6564 42.6887 96.251 43.0942C95.8455 43.4996 95.5254 44.0438 95.2907 44.7266C95.0559 45.4095 94.9386 46.2737 94.9386 47.3194C94.9386 48.4717 95.1733 49.4533 95.6428 50.2642C96.1336 51.0537 96.7524 51.6619 97.4993 52.0887C98.2675 52.4941 99.0784 52.6968 99.932 52.6968C100.722 52.6968 101.351 52.6328 101.82 52.5048C102.29 52.3767 102.663 52.2274 102.941 52.0567C103.24 51.8646 103.506 51.7046 103.741 51.5765C104.125 51.3845 104.488 51.2884 104.829 51.2884C105.299 51.2884 105.683 51.4485 105.982 51.7686C106.302 52.0887 106.462 52.4621 106.462 52.8889C106.462 53.465 106.163 53.9879 105.566 54.4573C105.011 54.9268 104.232 55.3429 103.229 55.7057C102.226 56.0471 101.191 56.2178 100.124 56.2178Z" fill="#FF595E"/>
<path d="M109.791 53.241C109.577 52.9422 109.481 52.5581 109.503 52.0887C109.524 51.6192 109.801 51.2138 110.335 50.8723C110.676 50.6589 111.039 50.5736 111.423 50.6163C111.807 50.6376 112.181 50.8297 112.544 51.1924C113.162 51.8113 113.813 52.2914 114.496 52.6328C115.179 52.9742 116.033 53.145 117.057 53.145C117.377 53.1236 117.729 53.0809 118.113 53.0169C118.497 52.9316 118.828 52.7608 119.105 52.5048C119.404 52.2274 119.553 51.8113 119.553 51.2564C119.553 50.787 119.393 50.4135 119.073 50.1361C118.753 49.8587 118.326 49.624 117.793 49.4319C117.281 49.2399 116.705 49.0585 116.065 48.8878C115.403 48.6957 114.72 48.4823 114.016 48.2476C113.333 48.0129 112.704 47.7141 112.127 47.3514C111.551 46.9673 111.082 46.4658 110.719 45.8469C110.356 45.2281 110.175 44.4492 110.175 43.5103C110.175 42.4433 110.474 41.5364 111.071 40.7896C111.669 40.0427 112.437 39.4665 113.376 39.0611C114.336 38.6556 115.339 38.4529 116.385 38.4529C117.046 38.4529 117.74 38.5383 118.465 38.709C119.191 38.8584 119.884 39.1144 120.546 39.4772C121.207 39.8186 121.762 40.2774 122.21 40.8536C122.445 41.1737 122.584 41.5578 122.626 42.0059C122.669 42.454 122.466 42.8595 122.018 43.2222C121.698 43.4783 121.325 43.5957 120.898 43.5743C120.471 43.5316 120.119 43.3823 119.842 43.1262C119.479 42.6567 118.988 42.2833 118.369 42.0059C117.772 41.7285 117.078 41.5898 116.289 41.5898C115.969 41.5898 115.616 41.6325 115.232 41.7178C114.87 41.7818 114.549 41.9419 114.272 42.1979C113.995 42.4327 113.856 42.8168 113.856 43.3503C113.856 43.8411 114.016 44.2358 114.336 44.5346C114.656 44.812 115.083 45.0467 115.616 45.2388C116.171 45.4095 116.758 45.5802 117.377 45.7509C118.017 45.9216 118.668 46.1244 119.329 46.3591C119.991 46.5938 120.599 46.9032 121.154 47.2873C121.709 47.6714 122.157 48.1729 122.498 48.7918C122.84 49.3893 123.01 50.1575 123.01 51.0964C123.01 52.1847 122.69 53.1129 122.05 53.8812C121.41 54.6494 120.61 55.2362 119.65 55.6416C118.689 56.0257 117.708 56.2178 116.705 56.2178C115.446 56.2178 114.187 56.0044 112.928 55.5776C111.669 55.1295 110.623 54.3506 109.791 53.241Z" fill="#FF595E"/>
<path d="M126.403 39.0931H133.989C134.501 39.0931 134.928 39.2638 135.27 39.6052C135.611 39.9466 135.782 40.3734 135.782 40.8856C135.782 41.3764 135.611 41.7925 135.27 42.1339C134.928 42.454 134.501 42.614 133.989 42.614H126.403C125.891 42.614 125.464 42.4433 125.123 42.1019C124.781 41.7605 124.611 41.3337 124.611 40.8216C124.611 40.3308 124.781 39.9253 125.123 39.6052C125.464 39.2638 125.891 39.0931 126.403 39.0931ZM129.828 35.092C130.383 35.092 130.831 35.284 131.172 35.6681C131.535 36.0309 131.717 36.4897 131.717 37.0445V51.2884C131.717 51.5872 131.77 51.8326 131.877 52.0246C132.005 52.2167 132.165 52.3554 132.357 52.4408C132.57 52.5261 132.794 52.5688 133.029 52.5688C133.285 52.5688 133.52 52.5261 133.733 52.4408C133.947 52.3341 134.192 52.2807 134.469 52.2807C134.768 52.2807 135.035 52.4194 135.27 52.6968C135.526 52.9742 135.654 53.3583 135.654 53.8491C135.654 54.4466 135.323 54.9374 134.661 55.3215C134.021 55.7057 133.328 55.8977 132.581 55.8977C132.133 55.8977 131.631 55.8657 131.076 55.8017C130.543 55.7163 130.031 55.5349 129.54 55.2575C129.071 54.9588 128.676 54.5107 128.356 53.9132C128.036 53.3157 127.876 52.4941 127.876 51.4485V37.0445C127.876 36.4897 128.057 36.0309 128.42 35.6681C128.804 35.284 129.273 35.092 129.828 35.092Z" fill="#FF595E"/>
<path d="M155.595 47.3514C155.595 49.1012 155.2 50.6483 154.411 51.9926C153.643 53.3157 152.597 54.3506 151.274 55.0975C149.972 55.8444 148.511 56.2178 146.889 56.2178C145.267 56.2178 143.795 55.8444 142.472 55.0975C141.17 54.3506 140.124 53.3157 139.335 51.9926C138.567 50.6483 138.182 49.1012 138.182 47.3514C138.182 45.6015 138.567 44.0651 139.335 42.7421C140.124 41.3977 141.17 40.3521 142.472 39.6052C143.795 38.837 145.267 38.4529 146.889 38.4529C148.511 38.4529 149.972 38.837 151.274 39.6052C152.597 40.3521 153.643 41.3977 154.411 42.7421C155.2 44.0651 155.595 45.6015 155.595 47.3514ZM151.754 47.3514C151.754 46.2631 151.53 45.3241 151.082 44.5346C150.655 43.7237 150.068 43.0942 149.321 42.6461C148.596 42.1979 147.785 41.9739 146.889 41.9739C145.993 41.9739 145.171 42.1979 144.424 42.6461C143.699 43.0942 143.112 43.7237 142.664 44.5346C142.237 45.3241 142.023 46.2631 142.023 47.3514C142.023 48.4183 142.237 49.3572 142.664 50.1681C143.112 50.9577 143.699 51.5765 144.424 52.0246C145.171 52.4728 145.993 52.6968 146.889 52.6968C147.785 52.6968 148.596 52.4728 149.321 52.0246C150.068 51.5765 150.655 50.9577 151.082 50.1681C151.53 49.3572 151.754 48.4183 151.754 47.3514Z" fill="#FF595E"/>
<path d="M171.503 38.773C172.058 38.773 172.517 38.965 172.88 39.3491C173.243 39.7119 173.424 40.1707 173.424 40.7255V48.8558C173.424 51.1177 172.795 52.9102 171.535 54.2332C170.276 55.5563 168.463 56.2178 166.094 56.2178C163.725 56.2178 161.911 55.5563 160.652 54.2332C159.415 52.9102 158.796 51.1177 158.796 48.8558V40.7255C158.796 40.1707 158.977 39.7119 159.34 39.3491C159.703 38.965 160.162 38.773 160.717 38.773C161.271 38.773 161.73 38.965 162.093 39.3491C162.456 39.7119 162.637 40.1707 162.637 40.7255V48.8558C162.637 50.1574 162.925 51.1284 163.501 51.7686C164.077 52.3874 164.942 52.6968 166.094 52.6968C167.268 52.6968 168.143 52.3874 168.719 51.7686C169.295 51.1284 169.583 50.1574 169.583 48.8558V40.7255C169.583 40.1707 169.764 39.7119 170.127 39.3491C170.49 38.965 170.949 38.773 171.503 38.773Z" fill="#FF595E"/>
</svg>
