<svg width="150" height="150" viewBox="0 0 150 150" fill="none" xmlns="http://www.w3.org/2000/svg">
<path d="M95.2381 90.7833L105.554 50.1286H44.4463L54.7618 90.7833H95.2381Z" fill="#FF595E" stroke="#FF595E" stroke-width="3.64971" stroke-linejoin="round"/>
<path d="M61.8528 80.4019L56.7513 58.547" stroke="white" stroke-width="3.64971" stroke-linecap="round"/>
<path d="M88.1472 80.4019L93.2486 58.547" stroke="white" stroke-width="3.64971" stroke-linecap="round"/>
<path d="M74.7672 80.6932L75.2328 58.2557" stroke="white" stroke-width="3.64971" stroke-linecap="round"/>
<path d="M93.2486 43.9046L85.485 29.8452" stroke="#FF595E" stroke-width="3.64971" stroke-linecap="round"/>
<path d="M56.7513 43.9046L65.2087 29.8452" stroke="#FF595E" stroke-width="3.64971" stroke-linecap="round"/>
<path d="M33.5335 103.884C34.7664 103.884 35.8372 104.014 36.7457 104.273C37.6758 104.533 38.3896 104.901 38.8872 105.377C39.4063 105.831 39.6659 106.382 39.6659 107.031C39.6659 107.464 39.5361 107.875 39.2765 108.264C39.0169 108.632 38.6384 108.816 38.1409 108.816C37.7948 108.816 37.5027 108.773 37.2648 108.686C37.0485 108.578 36.8538 108.448 36.6808 108.297C36.5077 108.145 36.3022 108.005 36.0643 107.875C35.848 107.745 35.5127 107.648 35.0585 107.583C34.6258 107.496 34.3014 107.453 34.0851 107.453C32.9819 107.453 32.0409 107.691 31.2622 108.167C30.5051 108.643 29.9211 109.292 29.5101 110.114C29.0991 110.914 28.8936 111.844 28.8936 112.904C28.8936 113.942 29.0991 114.873 29.5101 115.695C29.9427 116.495 30.5267 117.133 31.2622 117.609C32.0193 118.085 32.8845 118.323 33.8579 118.323C34.3987 118.323 34.8637 118.29 35.2531 118.225C35.6425 118.161 35.9669 118.063 36.2265 117.933C36.5293 117.76 36.7997 117.576 37.0377 117.382C37.2756 117.187 37.6326 117.09 38.1084 117.09C38.6708 117.09 39.1035 117.274 39.4063 117.641C39.7091 117.987 39.8605 118.42 39.8605 118.939C39.8605 119.48 39.5577 119.978 38.952 120.432C38.3464 120.864 37.546 121.221 36.551 121.503C35.5776 121.762 34.5177 121.892 33.3712 121.892C31.6624 121.892 30.1806 121.503 28.926 120.724C27.6715 119.923 26.6981 118.842 26.0059 117.479C25.3353 116.116 25 114.591 25 112.904C25 111.13 25.3569 109.573 26.0708 108.232C26.8062 106.869 27.812 105.809 29.0883 105.052C30.3861 104.273 31.8679 103.884 33.5335 103.884Z" fill="#FF595E"/>
<path d="M50.6977 121.892C48.8591 121.892 47.2584 121.513 45.8956 120.756C44.5545 119.978 43.5162 118.928 42.7807 117.609C42.0669 116.289 41.71 114.797 41.71 113.131C41.71 111.185 42.0994 109.53 42.8781 108.167C43.6784 106.783 44.7167 105.723 45.9929 104.987C47.2692 104.252 48.6211 103.884 50.0487 103.884C51.1519 103.884 52.1902 104.111 53.1636 104.565C54.1587 105.02 55.0347 105.647 55.7918 106.447C56.5489 107.226 57.1437 108.135 57.5764 109.173C58.0306 110.211 58.2577 111.314 58.2577 112.482C58.2361 113.002 58.0306 113.423 57.6413 113.748C57.2519 114.072 56.7976 114.234 56.2785 114.234H43.8839L42.9105 110.99H54.8184L54.1046 111.639V110.763C54.0613 110.135 53.8342 109.573 53.4232 109.075C53.0339 108.578 52.5363 108.189 51.9307 107.907C51.3466 107.605 50.7193 107.453 50.0487 107.453C49.3998 107.453 48.7941 107.54 48.2317 107.713C47.6693 107.886 47.1826 108.178 46.7717 108.589C46.3607 109 46.0362 109.551 45.7982 110.244C45.5603 110.936 45.4413 111.812 45.4413 112.872C45.4413 114.04 45.6793 115.035 46.1552 115.857C46.6527 116.657 47.28 117.274 48.0371 117.706C48.8158 118.117 49.6378 118.323 50.503 118.323C51.3034 118.323 51.9415 118.258 52.4173 118.128C52.8932 117.998 53.2718 117.847 53.553 117.674C53.8558 117.479 54.1262 117.317 54.3642 117.187C54.7535 116.992 55.1212 116.895 55.4673 116.895C55.9432 116.895 56.3326 117.057 56.6354 117.382C56.9599 117.706 57.1221 118.085 57.1221 118.517C57.1221 119.101 56.8193 119.631 56.2136 120.107C55.6512 120.583 54.8617 121.005 53.845 121.373C52.8283 121.719 51.7792 121.892 50.6977 121.892Z" fill="#FF595E"/>
<path d="M60.4967 118.874C60.2803 118.572 60.183 118.182 60.2046 117.706C60.2263 117.23 60.5075 116.819 61.0483 116.473C61.3944 116.257 61.7621 116.17 62.1514 116.214C62.5408 116.235 62.9193 116.43 63.2871 116.798C63.9144 117.425 64.5741 117.912 65.2663 118.258C65.9585 118.604 66.8238 118.777 67.862 118.777C68.1865 118.755 68.5434 118.712 68.9328 118.647C69.3221 118.561 69.6574 118.388 69.9386 118.128C70.2414 117.847 70.3928 117.425 70.3928 116.863C70.3928 116.387 70.2306 116.008 69.9062 115.727C69.5817 115.446 69.1491 115.208 68.6083 115.013C68.0891 114.819 67.5051 114.635 66.8562 114.462C66.1856 114.267 65.4934 114.051 64.7796 113.813C64.0874 113.575 63.4493 113.272 62.8653 112.904C62.2812 112.515 61.8053 112.006 61.4376 111.379C61.0699 110.752 60.886 109.962 60.886 109.011C60.886 107.929 61.1888 107.01 61.7945 106.253C62.4002 105.496 63.1789 104.912 64.1307 104.501C65.1041 104.09 66.1207 103.884 67.1806 103.884C67.8512 103.884 68.5542 103.971 69.2897 104.144C70.0251 104.295 70.7281 104.555 71.3987 104.922C72.0693 105.268 72.6316 105.734 73.0859 106.318C73.3238 106.642 73.4645 107.031 73.5077 107.486C73.551 107.94 73.3455 108.351 72.8912 108.719C72.5668 108.978 72.1882 109.097 71.7556 109.075C71.323 109.032 70.9661 108.881 70.6848 108.621C70.3171 108.145 69.8196 107.767 69.1923 107.486C68.5866 107.204 67.8837 107.064 67.0833 107.064C66.7589 107.064 66.4019 107.107 66.0126 107.194C65.6448 107.258 65.3204 107.421 65.0392 107.68C64.758 107.918 64.6174 108.308 64.6174 108.848C64.6174 109.346 64.7796 109.746 65.1041 110.049C65.4285 110.33 65.8611 110.568 66.4019 110.763C66.9643 110.936 67.5592 111.109 68.1865 111.282C68.8354 111.455 69.4952 111.66 70.1657 111.898C70.8363 112.136 71.4528 112.45 72.0152 112.839C72.5776 113.229 73.0318 113.737 73.3779 114.364C73.724 114.97 73.8971 115.749 73.8971 116.7C73.8971 117.804 73.5726 118.745 72.9237 119.523C72.2747 120.302 71.4636 120.897 70.4902 121.308C69.5168 121.697 68.5218 121.892 67.5051 121.892C66.2289 121.892 64.9527 121.676 63.6764 121.243C62.4002 120.789 61.3403 119.999 60.4967 118.874Z" fill="#FF595E"/>
<path d="M77.3362 104.533H85.026C85.5452 104.533 85.9778 104.706 86.3239 105.052C86.67 105.398 86.8431 105.831 86.8431 106.35C86.8431 106.848 86.67 107.269 86.3239 107.615C85.9778 107.94 85.5452 108.102 85.026 108.102H77.3362C76.8171 108.102 76.3845 107.929 76.0384 107.583C75.6923 107.237 75.5192 106.804 75.5192 106.285C75.5192 105.788 75.6923 105.377 76.0384 105.052C76.3845 104.706 76.8171 104.533 77.3362 104.533ZM80.808 100.477C81.3704 100.477 81.8247 100.672 82.1708 101.061C82.5385 101.429 82.7224 101.894 82.7224 102.456V116.895C82.7224 117.198 82.7764 117.447 82.8846 117.641C83.0144 117.836 83.1766 117.977 83.3713 118.063C83.5876 118.15 83.8147 118.193 84.0527 118.193C84.3123 118.193 84.5502 118.15 84.7665 118.063C84.9828 117.955 85.2316 117.901 85.5128 117.901C85.8156 117.901 86.086 118.042 86.3239 118.323C86.5835 118.604 86.7133 118.993 86.7133 119.491C86.7133 120.097 86.378 120.594 85.7075 120.983C85.0585 121.373 84.3555 121.567 83.5984 121.567C83.1442 121.567 82.6358 121.535 82.0734 121.47C81.5326 121.384 81.0135 121.2 80.516 120.918C80.0401 120.616 79.6399 120.161 79.3155 119.556C78.991 118.95 78.8288 118.117 78.8288 117.057V102.456C78.8288 101.894 79.0126 101.429 79.3803 101.061C79.7697 100.672 80.2456 100.477 80.808 100.477Z" fill="#FF595E"/>
<path d="M106.927 112.904C106.927 114.678 106.527 116.246 105.727 117.609C104.948 118.95 103.888 119.999 102.547 120.756C101.228 121.513 99.7458 121.892 98.1019 121.892C96.4579 121.892 94.9654 121.513 93.6243 120.756C92.3048 119.999 91.2449 118.95 90.4445 117.609C89.6658 116.246 89.2764 114.678 89.2764 112.904C89.2764 111.13 89.6658 109.573 90.4445 108.232C91.2449 106.869 92.3048 105.809 93.6243 105.052C94.9654 104.273 96.4579 103.884 98.1019 103.884C99.7458 103.884 101.228 104.273 102.547 105.052C103.888 105.809 104.948 106.869 105.727 108.232C106.527 109.573 106.927 111.13 106.927 112.904ZM103.034 112.904C103.034 111.801 102.807 110.849 102.352 110.049C101.92 109.227 101.325 108.589 100.568 108.135C99.8324 107.68 99.0104 107.453 98.1019 107.453C97.1934 107.453 96.3606 107.68 95.6035 108.135C94.868 108.589 94.2732 109.227 93.8189 110.049C93.3863 110.849 93.17 111.801 93.17 112.904C93.17 113.986 93.3863 114.938 93.8189 115.759C94.2732 116.56 94.868 117.187 95.6035 117.641C96.3606 118.096 97.1934 118.323 98.1019 118.323C99.0104 118.323 99.8324 118.096 100.568 117.641C101.325 117.187 101.92 116.56 102.352 115.759C102.807 114.938 103.034 113.986 103.034 112.904Z" fill="#FF595E"/>
<path d="M123.053 104.209C123.616 104.209 124.081 104.403 124.449 104.793C124.816 105.16 125 105.625 125 106.188V114.429C125 116.722 124.362 118.539 123.086 119.88C121.81 121.221 119.971 121.892 117.57 121.892C115.169 121.892 113.33 121.221 112.054 119.88C110.799 118.539 110.172 116.722 110.172 114.429V106.188C110.172 105.625 110.356 105.16 110.724 104.793C111.091 104.403 111.556 104.209 112.119 104.209C112.681 104.209 113.146 104.403 113.514 104.793C113.882 105.16 114.066 105.625 114.066 106.188V114.429C114.066 115.749 114.358 116.733 114.942 117.382C115.526 118.009 116.402 118.323 117.57 118.323C118.76 118.323 119.646 118.009 120.23 117.382C120.815 116.733 121.107 115.749 121.107 114.429V106.188C121.107 105.625 121.29 105.16 121.658 104.793C122.026 104.403 122.491 104.209 123.053 104.209Z" fill="#FF595E"/>
</svg>
