<svg width="66" height="26" viewBox="0 0 66 26" fill="none" xmlns="http://www.w3.org/2000/svg">
<path d="M21.004 25L25.0667 8.98848H1L5.06269 25H21.004Z" fill="white" stroke="#FFFFFE" stroke-width="1.35619" stroke-linejoin="round"/>
<path d="M7.85552 20.9114L5.84637 12.304L7.85552 20.9114Z" fill="white"/>
<path d="M7.85552 20.9114L5.84637 12.304" stroke="#FF595E" stroke-width="1.35619" stroke-linecap="round"/>
<path d="M18.2112 20.9114L20.2204 12.304L18.2112 20.9114Z" fill="white"/>
<path d="M18.2112 20.9114L20.2204 12.304" stroke="#FF595E" stroke-width="1.35619" stroke-linecap="round"/>
<path d="M12.9417 21.0261L13.125 12.1893L12.9417 21.0261Z" fill="white"/>
<path d="M12.9417 21.0261L13.125 12.1893" stroke="#FF595E" stroke-width="1.35619" stroke-linecap="round"/>
<path d="M20.2205 6.53718L17.1629 1L20.2205 6.53718Z" fill="white"/>
<path d="M20.2205 6.53718L17.1629 1" stroke="white" stroke-width="1.35619" stroke-linecap="round"/>
<path d="M5.84637 6.53718L9.17724 1L5.84637 6.53718Z" fill="white"/>
<path d="M5.84637 6.53718L9.17724 1" stroke="white" stroke-width="1.35619" stroke-linecap="round"/>
<path d="M31.064 13.6225C31.5221 13.6225 31.92 13.6707 32.2576 13.7672C32.6032 13.8636 32.8685 14.0003 33.0534 14.1771C33.2463 14.3459 33.3427 14.5509 33.3427 14.792C33.3427 14.9528 33.2945 15.1055 33.198 15.2502C33.1016 15.3868 32.9609 15.4551 32.776 15.4551C32.6474 15.4551 32.5389 15.4391 32.4505 15.4069C32.3701 15.3667 32.2978 15.3185 32.2335 15.2622C32.1692 15.206 32.0928 15.1537 32.0044 15.1055C31.924 15.0573 31.7994 15.0211 31.6307 14.997C31.4699 14.9648 31.3493 14.9488 31.269 14.9488C30.859 14.9488 30.5094 15.0372 30.22 15.214C29.9387 15.3908 29.7217 15.632 29.569 15.9374C29.4162 16.2348 29.3399 16.5804 29.3399 16.9743C29.3399 17.3601 29.4162 17.7057 29.569 18.0112C29.7297 18.3086 29.9467 18.5457 30.22 18.7225C30.5013 18.8993 30.8229 18.9877 31.1846 18.9877C31.3855 18.9877 31.5583 18.9757 31.703 18.9516C31.8477 18.9275 31.9682 18.8913 32.0647 18.8431C32.1772 18.7788 32.2777 18.7104 32.3661 18.6381C32.4545 18.5658 32.5872 18.5296 32.764 18.5296C32.973 18.5296 33.1337 18.5979 33.2463 18.7346C33.3588 18.8632 33.4151 19.0239 33.4151 19.2168C33.4151 19.4178 33.3025 19.6026 33.0775 19.7714C32.8524 19.9322 32.555 20.0648 32.1853 20.1693C31.8236 20.2658 31.4297 20.314 31.0037 20.314C30.3687 20.314 29.8181 20.1693 29.3519 19.8799C28.8857 19.5825 28.524 19.1807 28.2668 18.6743C28.0177 18.1679 27.8931 17.6012 27.8931 16.9743C27.8931 16.3152 28.0257 15.7365 28.2909 15.2381C28.5642 14.7317 28.938 14.3379 29.4122 14.0566C29.8945 13.7672 30.4451 13.6225 31.064 13.6225Z" fill="white"/>
<path d="M37.4419 20.314C36.7587 20.314 36.1639 20.1733 35.6576 19.892C35.1592 19.6026 34.7734 19.2128 34.5001 18.7225C34.2349 18.2322 34.1022 17.6776 34.1022 17.0587C34.1022 16.3353 34.2469 15.7204 34.5363 15.214C34.8337 14.6996 35.2195 14.3057 35.6937 14.0324C36.168 13.7592 36.6703 13.6225 37.2008 13.6225C37.6107 13.6225 37.9966 13.7069 38.3583 13.8757C38.728 14.0445 39.0535 14.2776 39.3348 14.575C39.6162 14.8644 39.8372 15.2019 39.998 15.5878C40.1668 15.9736 40.2512 16.3835 40.2512 16.8175C40.2431 17.0104 40.1668 17.1672 40.0221 17.2878C39.8774 17.4083 39.7086 17.4686 39.5157 17.4686H34.91L34.5483 16.2629H38.9732L38.7079 16.5041V16.1785C38.6918 15.9454 38.6074 15.7365 38.4547 15.5516C38.31 15.3667 38.1252 15.222 37.9001 15.1175C37.6831 15.005 37.45 14.9488 37.2008 14.9488C36.9597 14.9488 36.7346 14.9809 36.5256 15.0452C36.3166 15.1095 36.1358 15.218 35.9831 15.3707C35.8304 15.5235 35.7098 15.7284 35.6214 15.9856C35.533 16.2428 35.4888 16.5684 35.4888 16.9622C35.4888 17.3963 35.5772 17.766 35.754 18.0714C35.9389 18.3688 36.172 18.5979 36.4533 18.7587C36.7427 18.9114 37.0481 18.9877 37.3696 18.9877C37.667 18.9877 37.9041 18.9636 38.0809 18.9154C38.2578 18.8672 38.3984 18.8109 38.5029 18.7466C38.6155 18.6743 38.7159 18.614 38.8044 18.5658C38.949 18.4934 39.0857 18.4573 39.2143 18.4573C39.3911 18.4573 39.5358 18.5175 39.6483 18.6381C39.7689 18.7587 39.8292 18.8993 39.8292 19.0601C39.8292 19.2771 39.7166 19.474 39.4916 19.6509C39.2826 19.8277 38.9892 19.9844 38.6114 20.1211C38.2337 20.2497 37.8438 20.314 37.4419 20.314Z" fill="white"/>
<path d="M41.0831 19.1927C41.0027 19.0802 40.9666 18.9355 40.9746 18.7587C40.9826 18.5818 41.0871 18.4291 41.2881 18.3005C41.4167 18.2201 41.5533 18.188 41.698 18.2041C41.8427 18.2121 41.9833 18.2844 42.12 18.4211C42.3531 18.6542 42.5982 18.835 42.8554 18.9636C43.1127 19.0922 43.4342 19.1565 43.82 19.1565C43.9406 19.1485 44.0732 19.1324 44.2179 19.1083C44.3625 19.0762 44.4871 19.0119 44.5916 18.9154C44.7041 18.8109 44.7604 18.6542 44.7604 18.4452C44.7604 18.2684 44.7001 18.1277 44.5796 18.0232C44.459 17.9187 44.2982 17.8303 44.0973 17.758C43.9044 17.6856 43.6874 17.6173 43.4462 17.553C43.1971 17.4807 42.9398 17.4003 42.6746 17.3119C42.4174 17.2234 42.1803 17.1109 41.9633 16.9743C41.7462 16.8296 41.5694 16.6407 41.4328 16.4076C41.2961 16.1745 41.2278 15.8811 41.2278 15.5275C41.2278 15.1256 41.3403 14.784 41.5654 14.5027C41.7904 14.2213 42.0798 14.0043 42.4335 13.8516C42.7952 13.6989 43.1729 13.6225 43.5668 13.6225C43.816 13.6225 44.0772 13.6547 44.3505 13.719C44.6238 13.7752 44.885 13.8717 45.1342 14.0083C45.3833 14.1369 45.5923 14.3097 45.7611 14.5268C45.8495 14.6473 45.9018 14.792 45.9179 14.9608C45.9339 15.1296 45.8576 15.2823 45.6888 15.419C45.5682 15.5154 45.4276 15.5596 45.2668 15.5516C45.106 15.5355 44.9734 15.4792 44.8689 15.3828C44.7323 15.206 44.5474 15.0653 44.3143 14.9608C44.0892 14.8563 43.828 14.8041 43.5306 14.8041C43.4101 14.8041 43.2774 14.8201 43.1328 14.8523C42.9961 14.8764 42.8755 14.9367 42.7711 15.0331C42.6666 15.1216 42.6143 15.2662 42.6143 15.4672C42.6143 15.6521 42.6746 15.8008 42.7952 15.9133C42.9157 16.0178 43.0765 16.1062 43.2774 16.1785C43.4864 16.2428 43.7075 16.3071 43.9406 16.3714C44.1817 16.4357 44.4268 16.5121 44.676 16.6005C44.9252 16.6889 45.1543 16.8055 45.3632 16.9502C45.5722 17.0948 45.741 17.2837 45.8696 17.5168C45.9982 17.7419 46.0625 18.0312 46.0625 18.3849C46.0625 18.7948 45.942 19.1445 45.7008 19.4338C45.4597 19.7232 45.1583 19.9442 44.7966 20.097C44.4349 20.2416 44.0651 20.314 43.6874 20.314C43.2131 20.314 42.7389 20.2336 42.2647 20.0728C41.7904 19.9041 41.3966 19.6107 41.0831 19.1927Z" fill="white"/>
<path d="M47.3406 13.8636H50.198C50.3909 13.8636 50.5517 13.9279 50.6803 14.0565C50.8089 14.1852 50.8732 14.3459 50.8732 14.5388C50.8732 14.7237 50.8089 14.8804 50.6803 15.009C50.5517 15.1296 50.3909 15.1899 50.198 15.1899H47.3406C47.1477 15.1899 46.9869 15.1256 46.8583 14.997C46.7297 14.8684 46.6654 14.7076 46.6654 14.5147C46.6654 14.3298 46.7297 14.1771 46.8583 14.0565C46.9869 13.9279 47.1477 13.8636 47.3406 13.8636ZM48.6307 12.3566C48.8396 12.3566 49.0084 12.4289 49.137 12.5736C49.2737 12.7102 49.342 12.883 49.342 13.092V18.4572C49.342 18.5698 49.3621 18.6622 49.4023 18.7345C49.4505 18.8069 49.5108 18.8591 49.5831 18.8913C49.6635 18.9234 49.7479 18.9395 49.8363 18.9395C49.9328 18.9395 50.0212 18.9234 50.1016 18.8913C50.1819 18.8511 50.2744 18.831 50.3789 18.831C50.4914 18.831 50.5919 18.8832 50.6803 18.9877C50.7767 19.0922 50.825 19.2369 50.825 19.4218C50.825 19.6468 50.7004 19.8317 50.4512 19.9764C50.2101 20.1211 49.9489 20.1934 49.6675 20.1934C49.4987 20.1934 49.3098 20.1814 49.1009 20.1572C48.8999 20.1251 48.707 20.0568 48.5221 19.9523C48.3453 19.8397 48.1966 19.671 48.076 19.4459C47.9555 19.2208 47.8952 18.9114 47.8952 18.5175V13.092C47.8952 12.883 47.9635 12.7102 48.1001 12.5736C48.2448 12.4289 48.4217 12.3566 48.6307 12.3566Z" fill="white"/>
<path d="M58.3362 16.9743C58.3362 17.6334 58.1875 18.2161 57.8901 18.7225C57.6007 19.2208 57.2069 19.6107 56.7085 19.892C56.2182 20.1733 55.6676 20.314 55.0568 20.314C54.4459 20.314 53.8913 20.1733 53.3929 19.892C52.9026 19.6107 52.5088 19.2208 52.2114 18.7225C51.922 18.2161 51.7773 17.6334 51.7773 16.9743C51.7773 16.3152 51.922 15.7365 52.2114 15.2381C52.5088 14.7317 52.9026 14.3379 53.3929 14.0566C53.8913 13.7672 54.4459 13.6225 55.0568 13.6225C55.6676 13.6225 56.2182 13.7672 56.7085 14.0566C57.2069 14.3379 57.6007 14.7317 57.8901 15.2381C58.1875 15.7365 58.3362 16.3152 58.3362 16.9743ZM56.8894 16.9743C56.8894 16.5643 56.805 16.2107 56.6362 15.9133C56.4754 15.6079 56.2544 15.3707 55.9731 15.2019C55.6998 15.0331 55.3944 14.9488 55.0568 14.9488C54.7192 14.9488 54.4097 15.0331 54.1284 15.2019C53.8551 15.3707 53.6341 15.6079 53.4653 15.9133C53.3045 16.2107 53.2242 16.5643 53.2242 16.9743C53.2242 17.3762 53.3045 17.7298 53.4653 18.0353C53.6341 18.3327 53.8551 18.5658 54.1284 18.7346C54.4097 18.9033 54.7192 18.9877 55.0568 18.9877C55.3944 18.9877 55.6998 18.9033 55.9731 18.7346C56.2544 18.5658 56.4754 18.3327 56.6362 18.0353C56.805 17.7298 56.8894 17.3762 56.8894 16.9743Z" fill="white"/>
<path d="M64.3284 13.7431C64.5374 13.7431 64.7102 13.8154 64.8468 13.9601C64.9835 14.0968 65.0518 14.2696 65.0518 14.4785V17.5409C65.0518 18.393 64.8147 19.0681 64.3404 19.5665C63.8662 20.0648 63.183 20.314 62.2908 20.314C61.3986 20.314 60.7154 20.0648 60.2412 19.5665C59.775 19.0681 59.5419 18.393 59.5419 17.5409V14.4785C59.5419 14.2696 59.6102 14.0968 59.7469 13.9601C59.8835 13.8154 60.0563 13.7431 60.2653 13.7431C60.4743 13.7431 60.6471 13.8154 60.7837 13.9601C60.9204 14.0968 60.9887 14.2696 60.9887 14.4785V17.5409C60.9887 18.0313 61.0972 18.397 61.3142 18.6381C61.5312 18.8712 61.8568 18.9878 62.2908 18.9878C62.7329 18.9878 63.0624 18.8712 63.2794 18.6381C63.4965 18.397 63.605 18.0313 63.605 17.5409V14.4785C63.605 14.2696 63.6733 14.0968 63.8099 13.9601C63.9466 13.8154 64.1194 13.7431 64.3284 13.7431Z" fill="white"/>
</svg>
