<svg width="56" height="56" viewBox="0 0 56 56" fill="none" xmlns="http://www.w3.org/2000/svg">
<circle cx="28" cy="28" r="28" fill="#BBBBBB"/>
<path d="M28 28C32.4188 28 36 24.4187 36 20C36 15.5813 32.4188 12 28 12C23.5813 12 20 15.5813 20 20C20 24.4187 23.5813 28 28 28ZM33.6 30H32.5562C31.1687 30.6375 29.625 31 28 31C26.375 31 24.8375 30.6375 23.4438 30H22.4C17.7625 30 14 33.7625 14 38.4V41C14 42.6562 15.3438 44 17 44H39C40.6562 44 42 42.6562 42 41V38.4C42 33.7625 38.2375 30 33.6 30Z" fill="#747474"/>
</svg>
